<?xml version="1.0" standalone="no"?>
<!DOCTYPE svg PUBLIC "-//W3C//DTD SVG 20010904//EN"
 "http://www.w3.org/TR/2001/REC-SVG-20010904/DTD/svg10.dtd">
<svg version="1.0" xmlns="http://www.w3.org/2000/svg"
 width="96.000000pt" height="93.000000pt" viewBox="0 0 96.000000 93.000000"
 preserveAspectRatio="xMidYMid meet">
<metadata>
</metadata>
<g transform="translate(0.000000,93.000000) scale(0.100000,-0.100000)"
fill="#000000" stroke="none">
<path d="M480 795 c0 -101 -3 -135 -12 -135 -7 0 -23 -3 -35 -6 -21 -6 -23 -3
-23 30 l0 36 -85 0 -85 0 0 -330 0 -330 85 0 85 0 0 94 0 93 35 -11 35 -11 0
-82 0 -83 85 0 85 0 0 96 c0 66 3 93 11 88 6 -3 9 -14 6 -24 -3 -12 26 -48 98
-120 90 -89 105 -100 128 -95 31 8 53 31 62 65 5 22 -8 38 -94 124 -74 74
-104 97 -117 92 -10 -4 -24 0 -35 10 -17 15 -16 17 2 57 35 78 18 184 -40 244
-20 21 -21 33 -21 178 l0 155 -85 0 -85 0 0 -135z m73 -186 c83 -23 134 -99
124 -186 -9 -86 -76 -143 -167 -143 -96 0 -160 58 -168 153 -7 82 34 144 115
172 47 17 49 17 96 4z"/>
<path d="M0 305 l0 -245 85 0 85 0 0 245 0 245 -85 0 -85 0 0 -245z"/>
</g>
</svg>
