<?xml version="1.0" standalone="no"?>
<!DOCTYPE svg PUBLIC "-//W3C//DTD SVG 20010904//EN"
 "http://www.w3.org/TR/2001/REC-SVG-20010904/DTD/svg10.dtd">
<svg version="1.0" xmlns="http://www.w3.org/2000/svg"
 width="121.000000pt" height="93.000000pt" viewBox="0 0 121.000000 93.000000"
 preserveAspectRatio="xMidYMid meet">
<metadata>
</metadata>
<g transform="translate(0.000000,93.000000) scale(0.100000,-0.100000)"
fill="#000000" stroke="none">
<path d="M662 823 c-17 -59 -59 -207 -92 -328 -34 -121 -78 -274 -97 -339 -18
-65 -32 -125 -29 -131 5 -13 63 -31 72 -23 4 4 14 39 119 413 31 110 74 264
97 343 25 88 37 147 32 152 -5 5 -23 12 -40 16 l-30 6 -32 -109z"/>
<path d="M157 635 c-87 -91 -157 -169 -155 -174 8 -21 317 -331 330 -331 20 0
51 35 46 54 -1 8 -60 75 -129 148 l-126 133 128 135 c71 74 129 142 129 151 0
19 -31 49 -51 49 -8 -1 -85 -75 -172 -165z"/>
<path d="M846 781 c-10 -11 -16 -26 -14 -35 1 -8 60 -75 129 -148 l126 -133
-128 -135 c-71 -74 -129 -142 -129 -151 0 -21 34 -52 53 -47 20 4 330 325 325
337 -8 21 -317 331 -330 331 -8 0 -23 -9 -32 -19z"/>
</g>
</svg>
