<?xml version="1.0" standalone="no"?>
<!DOCTYPE svg PUBLIC "-//W3C//DTD SVG 20010904//EN"
 "http://www.w3.org/TR/2001/REC-SVG-20010904/DTD/svg10.dtd">
<svg version="1.0" xmlns="http://www.w3.org/2000/svg"
 width="121.000000pt" height="93.000000pt" viewBox="0 0 121.000000 93.000000"
 preserveAspectRatio="xMidYMid meet">
<metadata>
Created by potrace 1.13, written by Peter Selinger 2001-2015
</metadata>
<g transform="translate(0.000000,93.000000) scale(0.100000,-0.100000)"
fill="#000000" stroke="none">
<path d="M170 815 l0 -115 -85 0 -85 0 0 -350 0 -350 235 0 235 0 0 135 0 135
195 0 195 0 0 25 0 25 -105 0 c-87 0 -105 3 -105 15 0 13 20 15 120 15 l120 0
0 -170 0 -170 160 0 160 0 0 265 0 265 -75 0 -75 0 0 195 0 195 -445 0 -445 0
0 -115z m820 -92 c0 -76 3 -148 6 -160 6 -20 2 -22 -47 -25 l-54 -3 -3 -57 -3
-58 -209 0 -210 0 0 140 0 140 -120 0 -120 0 0 80 0 80 380 0 380 0 0 -137z
m-580 -348 l0 -255 -170 0 -170 0 0 255 0 255 170 0 170 0 0 -255z m673 108
c-13 -2 -35 -2 -50 0 -16 2 -5 4 22 4 28 0 40 -2 28 -4z m77 -201 l0 -179
-101 -6 c-56 -4 -106 -4 -110 -1 -10 6 -12 347 -2 357 3 4 53 7 110 7 l103 0
0 -178z m-580 53 c0 -12 -13 -15 -55 -15 -42 0 -55 3 -55 15 0 12 13 15 55 15
42 0 55 -3 55 -15z m-312 -278 c2 -11 -3 -17 -16 -17 -24 0 -32 8 -25 26 7 20
37 13 41 -9z m800 -4 c-4 -22 -22 -20 -26 1 -2 10 3 16 13 16 10 0 15 -7 13
-17z"/>
</g>
</svg>
